<?xml version="1.0" encoding="utf-8"?><!-- Uploaded to: SVG Repo, www.svgrepo.com, Generator: SVG Repo Mixer Tools -->
<svg fill="#000000" width="800px" height="800px" viewBox="0 0 24 24" id="amazon-circle" data-name="Flat Color" xmlns="http://www.w3.org/2000/svg" class="icon flat-color"><circle id="primary" cx="12" cy="12" r="10" style="fill: rgb(0, 0, 0);"></circle><path id="secondary" d="M17.52,10.29a5.76,5.76,0,0,0-2.7-.79,1,1,0,0,0-1,1,1,1,0,0,0,.43.84,8.37,8.37,0,0,1-3.43.68A7.76,7.76,0,0,1,7.59,10.7a1,1,0,1,0-1.18,1.61A9.57,9.57,0,0,0,10.58,14l.54,0a12.11,12.11,0,0,0,4.21-1,1,1,0,0,0,.86,1.48,1,1,0,0,0,.82-.43,5.28,5.28,0,0,0,1-2.93A1,1,0,0,0,17.52,10.29Z" style="fill: rgb(44, 169, 188);"></path></svg>